<svg xmlns="http://www.w3.org/2000/svg" viewBox="0 0 80.77 15.37"><title>casio</title><g id="Capa_2" data-name="Capa 2"><g id="Capa_1-2" data-name="Capa 1"><path d="M71.84,0c1.68.13,3.41.16,5.11.43a4,4,0,0,1,3.68,3.79,42.44,42.44,0,0,1,0,7A3.88,3.88,0,0,1,76.89,15a79.47,79.47,0,0,1-10.12,0c-2.33-.15-3.76-1.92-3.89-4.3a53.14,53.14,0,0,1,0-5.92,4.33,4.33,0,0,1,4-4.37C68.47.17,70.13.15,71.84,0Zm0,4.07c-1,0-2,.09-2.89.16a1.2,1.2,0,0,0-1.28,1.26c0,1.48,0,3,0,4.43a1.13,1.13,0,0,0,1.2,1.22c2,0,3.94,0,5.91,0A1.19,1.19,0,0,0,76,9.87C76,8.42,76,7,76,5.54a1.21,1.21,0,0,0-1.26-1.29Z"/><path d="M37.3,10.55c1.36,0,2.67,0,4,0a1.57,1.57,0,0,1,.66.35c.5.31,1,.86,1.49.9a38.82,38.82,0,0,0,4.45,0c.76,0,1.4-.28,1.38-1.23s-.64-1.06-1.37-1.1l-6.56-.35c-2.63-.14-4-1.46-4.09-4C37.1,2.4,38.38.59,40.94.43a71.28,71.28,0,0,1,8.77,0c2.44.15,3.69,1.87,3.57,4.43h-4.5c-.17-1.21-1.15-1.24-2.12-1.24-1.17,0-2.33,0-3.5,0-.69,0-1.36.15-1.38,1.09s.62,1,1.34,1.09c2.26.1,4.52.19,6.77.35,1.69.13,3.21.62,3.81,2.48.72,2.27.29,4.46-1.32,5.58a5.23,5.23,0,0,1-2.74.93c-3,.08-6,.08-9-.13C38.27,14.88,37.07,13.14,37.3,10.55Z"/><path d="M17.64,5.71H13c0-1.36-.89-1.63-2-1.62-1.59,0-3.17,0-4.76,0A1.39,1.39,0,0,0,4.7,5.65c0,1.41,0,2.81,0,4.22A1.2,1.2,0,0,0,6,11.16c1.9,0,3.81.08,5.71,0,1,0,1.09-.27,1.5-1.76h4.6c.59,2.76-.79,5.08-3.49,5.53a31.63,31.63,0,0,1-10.85-.08A3.74,3.74,0,0,1,.14,11.35a50.4,50.4,0,0,1,0-7.27A3.8,3.8,0,0,1,3.49.48a32.47,32.47,0,0,1,11,0C16.77.84,17.92,2.87,17.64,5.71Z"/><path d="M37,15.07c-1.49,0-2.9,0-4.3,0a1.38,1.38,0,0,1-.88-.78c-.74-1.78-.71-1.79-2.67-1.79-1.48,0-3,0-4.44,0a1.08,1.08,0,0,0-1.22.86c-.64,1.78-.67,1.77-2.55,1.77H17.91c.15-.4.24-.69.36-1,1.8-4.26,3.62-8.5,5.39-12.77A1.31,1.31,0,0,1,25.15.39c1.69.06,3.39,0,5.08,0a1.25,1.25,0,0,1,.93.57c2,4.53,3.89,9.08,5.81,13.62A2.07,2.07,0,0,1,37,15.07ZM29.94,9.23c-.68-1.81-1.28-3.52-2-5.2-.21-.52-.73-.55-.94,0-.69,1.71-1.3,3.46-2,5.23Z"/><path d="M60.47,15H55.86V.55h4.61Z"/></g></g></svg>