<svg xmlns="http://www.w3.org/2000/svg" viewBox="0 0 144.32 128.56"><defs><style>.cls-1{fill:#2a347c;}.cls-2{fill:#fafafa;}</style></defs><title>Recurso 2</title><g id="Capa_2" data-name="Capa 2"><g id="notificacion_de_pago" data-name="notificacion de pago"><g id="PAGADO"><path class="cls-1" d="M72.16,0C32.37,0,0,28.83,0,64.28s32.37,64.28,72.16,64.28,72.16-28.84,72.16-64.28S112,0,72.16,0Z"/><path class="cls-2" d="M112,49.7,72.89,84.51a6.55,6.55,0,0,1-8.51,0L44.84,67.1a5,5,0,0,1,0-7.57,6.52,6.52,0,0,1,8.5,0L68.63,73.15l34.84-31a6.55,6.55,0,0,1,8.5,0A5,5,0,0,1,112,49.7Z"/></g></g></g></svg>