<svg xmlns="http://www.w3.org/2000/svg" viewBox="0 0 64.05 64.05"><defs><style>.cls-1{fill:#4c4c4c;}.cls-2{fill:#fff;}</style></defs><title>Recurso 4</title><g id="Capa_2" data-name="Capa 2"><g id="index"><circle class="cls-1" cx="32.03" cy="32.03" r="32.03"/><path class="cls-2" d="M52.56,48H49.89V45.44a.74.74,0,0,0-.74-.74h-.84V30.62h.84a.74.74,0,0,0,.74-.74V27.36h1.18a.75.75,0,0,0,.75-.74v-3h.74a.74.74,0,0,0,.74-.74V19.2a.74.74,0,0,0-.49-.69L32.28,11a.74.74,0,0,0-.51,0L11.24,18.51a.74.74,0,0,0-.49.69v3.71a.75.75,0,0,0,.75.74h.74v3a.74.74,0,0,0,.74.74h1.18v2.52a.75.75,0,0,0,.75.74h.83V44.7h-.83a.75.75,0,0,0-.75.74V48H11.5a.75.75,0,0,0-.75.74v3.71a.75.75,0,0,0,.75.74H52.56a.74.74,0,0,0,.74-.74V48.7A.74.74,0,0,0,52.56,48Zm-4.15-1.78V48H41V46.18ZM36.47,44.7h-.83V30.62h.83a.74.74,0,0,0,.74-.74V27.36h2.3v2.52a.74.74,0,0,0,.74.74h.84V44.7h-.84a.74.74,0,0,0-.74.74V48h-2.3V45.44A.74.74,0,0,0,36.47,44.7Zm-12.67,0H23V30.62h.84a.74.74,0,0,0,.74-.74V27.36h2.3v2.52a.74.74,0,0,0,.74.74h.84V44.7h-.84a.74.74,0,0,0-.74.74V48h-2.3V45.44A.74.74,0,0,0,23.8,44.7Zm4.52-15.56V27.36h7.41v1.78Zm5.83,1.48V44.7H29.9V30.62ZM28.32,46.18h7.41V48H28.32ZM42.57,44.7V30.62h4.26V44.7Zm5.84-15.56H41V27.36h7.42ZM13.72,25.87V23.65h2.54a.74.74,0,0,0,0-1.48h-4V19.72L32,12.43l19.79,7.29v2.45H20.65a.74.74,0,1,0,0,1.48H50.33v2.22Zm1.93,3.27V27.36h7.41v1.78Zm5.83,1.48V44.7H17.22V30.62ZM15.65,46.18h7.41V48H15.65Zm36.17,5.49H12.24V49.44H51.82Z"/><path class="cls-2" d="M17.74,23.19Z"/><path class="cls-2" d="M17.9,22.39a.72.72,0,0,0-.16.8.63.63,0,0,0,.16.24.74.74,0,1,0,0-1Z"/></g></g></svg>