<svg xmlns="http://www.w3.org/2000/svg" viewBox="0 0 64.05 64.05"><defs><style>.cls-1{fill:#4c4c4c;}.cls-2{fill:#fff;}</style></defs><title>Recurso 6</title><g id="Capa_2" data-name="Capa 2"><g id="index"><circle class="cls-1" cx="32.03" cy="32.03" r="32.03"/><path class="cls-2" d="M46.79,40.4,45,39.32a3.6,3.6,0,0,0-1.81-.5h-2.7a6.53,6.53,0,0,0-1.64.21l-8.13,2.19A2.8,2.8,0,0,0,28.81,43l-7.15-3.87a2.79,2.79,0,0,0-1.92-.31A2.68,2.68,0,0,0,19,39a2.75,2.75,0,0,0-1.21,1.13,2.84,2.84,0,0,0-.37,1.4A2.77,2.77,0,0,0,18.84,44l12.82,7.67a3.48,3.48,0,0,0,1.85.53h9.92a3.45,3.45,0,0,0,1.3-.25l2.06-.81V52.2h7V38.12h-7ZM44.21,50.64a2.08,2.08,0,0,1-.78.15H33.51a2.14,2.14,0,0,1-1.12-.32L19.56,42.79a1.38,1.38,0,0,1-.7-1.22,1.34,1.34,0,0,1,.79-1.26,1.12,1.12,0,0,1,.35-.12l.27,0a1.39,1.39,0,0,1,.69.18l7.76,4.19a.3.3,0,0,0,0,.13,2.81,2.81,0,0,0,2.72,2.08,6.55,6.55,0,0,0,1.16-.2l7.31-2-.36-1.36-7.29,2-.82.16a1.4,1.4,0,0,1-1.36-1,.84.84,0,0,1,0-.27,1.7,1.7,0,0,1,0-.23,1.42,1.42,0,0,1,1-1.24l8.13-2.17a4.92,4.92,0,0,1,1.27-.17h2.7a2,2,0,0,1,1.08.3L46.79,42v7.58Zm4-11.11h4.22V50.79H48.2Z"/><path class="cls-2" d="M40.63,15.59l-3.78-3.78A6.28,6.28,0,0,0,32.37,10H23.52a3.52,3.52,0,0,0-1.57.37l-1.58.79a2.14,2.14,0,0,1-1,.22l-.72,0V10h-7V25.45h7V23.33h1.2l.42.29a7.87,7.87,0,0,0,4,1.29v9H53.83V15.59ZM17.22,24H13V11.37h4.22ZM21,22.45l-.78-.52H18.63V12.72l.66,0A3.62,3.62,0,0,0,21,12.38l1.57-.79a2.1,2.1,0,0,1,.95-.22h8.85a4.84,4.84,0,0,1,3.48,1.44l2.79,2.78H32.83l-1.71-1.71-1,1,5,5a1.41,1.41,0,0,1-2,2L29,17.7l-.49.42a3.73,3.73,0,0,1-4.75.07l-.41-.33L22.42,19l.41.34a5.18,5.18,0,0,0,1.43.81v3.4A6.41,6.41,0,0,1,21,22.45Zm10-.66,1.06,1.06a2.84,2.84,0,0,0,4,0,3.56,3.56,0,1,0,.4-.51,2.79,2.79,0,0,0,.23-2.53h9.43a4.24,4.24,0,0,0,3.46,3.47v2.93a4.23,4.23,0,0,0-3.46,3.46H32a4.23,4.23,0,0,0-3.46-3.46V23.28A4.24,4.24,0,0,0,31.05,21.79Zm5.89,2.95a2.11,2.11,0,1,1,2.11,2.11A2.11,2.11,0,0,1,36.94,24.74Zm15.48,7.75H25.67V20.39a5.07,5.07,0,0,0,3.17-.81l1.2,1.2a2.81,2.81,0,0,1-2.26,1.15h-.7v5.63h.7a2.81,2.81,0,0,1,2.82,2.81v.71H47.5v-.71a2.81,2.81,0,0,1,2.81-2.81H51V21.93h-.71a2.81,2.81,0,0,1-2.81-2.82v-.7H35.64L34.23,17H52.42Z"/></g></g></svg>