<?xml version="1.0" encoding="utf-8"?>
<!-- Generator: Adobe Illustrator 23.0.2, SVG Export Plug-In . SVG Version: 6.00 Build 0)  -->
<svg version="1.1" id="Capa_1" xmlns="http://www.w3.org/2000/svg" xmlns:xlink="http://www.w3.org/1999/xlink" x="0px" y="0px"
	 viewBox="0 0 512 512" style="enable-background:new 0 0 512 512;" xml:space="preserve">
<style type="text/css">
	.st0{fill:#FFFFFF;}
</style>
<path class="st0" d="M463.9,114.4l-11.3-33.9C448.3,67.6,436.2,59,422.6,59h-95V28c0-15.5-12.6-28-28-28h-87c-15.5,0-28,12.6-28,28
	V59h-95c-13.6,0-25.6,8.7-29.9,21.6l-11.3,33.9c-2.6,7.7-1.3,16.3,3.5,22.9s12.4,10.5,20.6,10.5h11.8l26,321.6
	c1.9,23.9,22.2,42.6,46.1,42.6h204.9c23.9,0,44.2-18.7,46.1-42.6l26-321.6h6.5c8.1,0,15.8-3.9,20.6-10.5
	C465.1,130.7,466.4,122.2,463.9,114.4z M214.6,30h83.1v29h-83.1V30z M377.4,467c-0.7,8.4-7.8,15-16.2,15H156.3
	c-8.4,0-15.5-6.6-16.2-15l-25.8-319.2h288.9L377.4,467z M78.8,117.8L88.1,90c0.2-0.6,0.8-1.1,1.5-1.1h333.1c0.7,0,1.3,0.4,1.5,1.1
	l9.3,27.8H78.8z"/>
<path class="st0" d="M329.5,466c0.3,0,0.5,0,0.8,0c7.9,0,14.6-6.2,15-14.2l14.1-270.4c0.4-8.3-5.9-15.3-14.2-15.8
	c-8.3-0.4-15.3,5.9-15.8,14.2l-14.1,270.4C314.9,458.5,321.2,465.5,329.5,466z"/>
<path class="st0" d="M167.6,451.8c0.4,8,7.1,14.2,15,14.2c0.3,0,0.6,0,0.8,0c8.3-0.4,14.6-7.5,14.2-15.8l-14.8-270.4
	c-0.4-8.3-7.5-14.6-15.8-14.2c-8.3,0.4-14.6,7.5-14.2,15.8L167.6,451.8z"/>
<path class="st0" d="M256.3,466c8.3,0,15-6.7,15-15V180.6c0-8.3-6.7-15-15-15s-15,6.7-15,15V451C241.3,459.3,248,466,256.3,466z"/>
</svg>
