<svg xmlns="http://www.w3.org/2000/svg" viewBox="0 0 413 413"><defs><style>.cls-1,.cls-2{fill:#4d4d4d;}.cls-1{opacity:0.1;}.cls-3,.cls-5{fill:#fe2e2f;}.cls-4{fill:#262626;}.cls-5{font-size:81px;font-family:Nunito-SemiBold, Nunito;font-weight:600;}</style></defs><title>Recurso 1</title><g id="Capa_2" data-name="Capa 2"><g id="Capa_1-2" data-name="Capa 1"><circle class="cls-1" cx="206.5" cy="206.5" r="206.5"/><path class="cls-2" d="M206.5,413C92.64,413,0,320.36,0,206.5S92.64,0,206.5,0,413,92.64,413,206.5,320.36,413,206.5,413Zm0-397C101.46,16,16,101.46,16,206.5S101.46,397,206.5,397,397,311.54,397,206.5,311.54,16,206.5,16Z"/><circle class="cls-3" cx="118.5" cy="116.5" r="13.5"/><rect class="cls-4" x="199" y="133" width="14" height="73" rx="7"/><circle class="cls-3" cx="81.5" cy="206.5" r="13.5"/><circle class="cls-3" cx="118.5" cy="296.5" r="13.5"/><circle class="cls-3" cx="206.5" cy="333.5" r="13.5"/><circle class="cls-3" cx="294.5" cy="296.5" r="13.5"/><text class="cls-5" transform="translate(181.36 103.03)">4</text><text class="cls-5" transform="translate(274.36 142.03)">0</text><text class="cls-5" transform="translate(313.36 234.03)">4</text><rect class="cls-4" x="166" y="201" width="123" height="11" rx="5.5"/><circle class="cls-2" cx="206.5" cy="206.5" r="22.5"/></g></g></svg>