<svg id="Capa_1" data-name="Capa 1" xmlns="http://www.w3.org/2000/svg" viewBox="0 0 602.3 258.72"><defs><style>.cls-1,.cls-5{fill:none;}.cls-1{stroke:#000;stroke-width:6.48px;}.cls-1,.cls-2,.cls-3,.cls-5{stroke-miterlimit:10;}.cls-2,.cls-3,.cls-5{stroke:#f93;stroke-linecap:round;}.cls-2,.cls-3{stroke-width:21.6px;}.cls-3{fill:#b71a5d;}.cls-4{fill:#fff;}.cls-5{stroke-width:10.8px;}.cls-6{fill:#f93;}</style></defs><title>logo-mireloj-2</title><path d="M383.43,130.76H363V92.11a5.4,5.4,0,0,0-10.8,0v44.05a5.4,5.4,0,0,0,5.4,5.4h25.8a5.4,5.4,0,0,0,0-10.8Z"/><path d="M585.77,125.36H441.71c-.28-2.24-.64-4.46-1.1-6.65H550.82a10.8,10.8,0,0,0,0-21.6H451.43c-15.6-37.3-52.77-62.6-93.8-62.6a101.66,101.66,0,1,0,93.79,140.7h99.4a10.8,10.8,0,0,0,0-21.6H440.61c.46-2.18.82-4.41,1.1-6.65H585.77a10.8,10.8,0,1,0,0-21.6ZM420.82,136c0,.06,0,.11,0,.17s0,.11,0,.17a63.2,63.2,0,1,1,0-.34Zm23.55,39.22A95.15,95.15,0,1,1,357.63,41c37.49,0,71.53,22.57,86.73,56.12h-11.5a84.8,84.8,0,1,0,0,78.1Z"/><path class="cls-1" d="M451.88,107.74a98.43,98.43,0,1,0,.19,56.18"/><line class="cls-2" x1="427.77" y1="107.91" x2="550.82" y2="107.91"/><line class="cls-2" x1="427.77" y1="164.41" x2="550.82" y2="164.41"/><line class="cls-3" x1="431.6" y1="136.16" x2="585.77" y2="136.16"/><circle class="cls-4" cx="357.63" cy="136.16" r="74" transform="translate(-24.88 147.22) rotate(-22.5)"/><path d="M357.63,73a63.2,63.2,0,1,1-63.2,63.2A63.21,63.21,0,0,1,357.63,73m0-21.6a84.8,84.8,0,1,0,84.8,84.8,84.89,84.89,0,0,0-84.8-84.8Z"/><line class="cls-5" x1="357.63" y1="136.16" x2="383.43" y2="136.16"/><line class="cls-5" x1="357.63" y1="136.16" x2="357.63" y2="92.11"/><path class="cls-6" d="M37.27,96.18l-4.9-30.46H30.83V96.18H11.43V88.29L18,32.72H40.08l4.8,25h1.36l4.81-25h22.2l6.44,55.57v7.89H60.38V65.72H58.75L53.86,96.18Z"/><path class="cls-6" d="M104.89,96.18H85.13V32.72h19.76Z"/><path class="cls-6" d="M13.25,111.52H53a7.61,7.61,0,0,1,7.89,7.88v24.93a7.42,7.42,0,0,1-1.55,4.4,6.92,6.92,0,0,1-3.71,2.76l6.25,15.59V175H42.43l-5.34-19.76h-4V175H13.25Zm27.73,16H33.1v11.88H41Z"/><path class="cls-6" d="M109.69,175H67.27V111.52h42.42v7.88l-3.17,8.07H87v7.07h19.49v15.87H87v8.7h22.66Z"/><path class="cls-6" d="M115.13,175V111.52h19.76v47.59h20V175Z"/><path class="cls-6" d="M199,175H167.35a7.79,7.79,0,0,1-5.76-2.22,7.68,7.68,0,0,1-2.22-5.67V119.4a7.67,7.67,0,0,1,2.22-5.66,7.79,7.79,0,0,1,5.76-2.22H199a7.79,7.79,0,0,1,5.76,2.22A7.67,7.67,0,0,1,207,119.4v47.68a7.68,7.68,0,0,1-2.22,5.67A7.79,7.79,0,0,1,199,175Zm-11.87-47.5h-7.89v31.64h7.89Z"/><path class="cls-6" d="M234.88,175H211.49V159.11H223V111.52h19.76v55.56a7.6,7.6,0,0,1-7.88,7.89Z"/><path d="M54,188.6v2.89h-4.5v20.74H46.16V191.49h-4.5V188.6Z"/><path d="M70.32,188.6h3.31v23.63H70.32Z"/><path d="M91.86,188.6h10.78v2.89h-7.5v7.36h6.52v2.89H95.14v7.64h7.5v2.85H91.86Z"/><path d="M130.08,188.6h3.24v23.63h-3.49q-5.48-14-7.15-18.54c0,.25,0,.79.14,1.6.19,2,.28,4.27.28,6.73v10.21h-3.21V188.6h3.53q4.85,12.27,5.89,15.2c.7,1.95,1.09,3,1.18,3.31,0-.21-.06-1.24-.19-3.09s-.2-3.63-.22-5.35Z"/><path d="M151.59,188.6h6.83a5.91,5.91,0,0,1,4.25,1.39,5.13,5.13,0,0,1,1.47,3.91v12.9a4.94,4.94,0,0,1-5.58,5.43h-7Zm9.27,5.4c0-1.77-.92-2.65-2.75-2.65h-3.25v18h3.25a2.44,2.44,0,0,0,2.75-2.76Z"/><path d="M192,212.23,190.67,206h-5.86l-1.29,6.27h-3.21l5.16-23.63h4.61l5.09,23.63Zm-6.59-9.09h4.71l-2.37-11.48Z"/></svg>