<svg xmlns="http://www.w3.org/2000/svg" viewBox="0 0 95.16 19"><title>nixon</title><g id="Capa_2" data-name="Capa 2"><g id="Capa_1-2" data-name="Capa 1"><path d="M89.57,0c2.85,4.05,5.52,8,5.59,13,0,3.67-2.24,5.94-5.91,6a10.69,10.69,0,0,1-2-.08c-3.38-.54-5.2-2.95-5-6.52a16.16,16.16,0,0,1,2.05-6.72c1-1.92,2.25-3.75,3.38-5.62L88,.16V3c0,2.21,0,4.41,0,6.61a2.87,2.87,0,0,1-1.12,2.45,19.37,19.37,0,0,0-2,1.85,1.43,1.43,0,0,0,0,2.16c1.68,1.9,5.93,1.91,7.61,0a1.41,1.41,0,0,0,0-2.16A25,25,0,0,0,90.47,12,2.74,2.74,0,0,1,89.4,9.84q0-4.66,0-9.33A2.46,2.46,0,0,1,89.57,0Z"/><path d="M13.81,17.47a2.86,2.86,0,0,1-3.3-1.13c-2.32-3.08-4.81-6-7.24-9-.2-.24-.42-.47-.78-.9V17.51H0V2.15A2.87,2.87,0,0,1,3.32,3.34c2.28,3,4.74,5.91,7.14,8.84.2.25.41.49.78.93v-11h2.57Z"/><path d="M72.09,12.84V2.12h2.5V17.47a2.83,2.83,0,0,1-3.21-1C69,13.28,66.44,10.26,64,7.2c-.16-.2-.33-.38-.66-.74V17.51H60.8V2.15a2.78,2.78,0,0,1,3.14,1c2.32,3,4.79,5.95,7.2,8.92l.73.87Z"/><path d="M49.53,17.63A7.83,7.83,0,1,1,57.47,9.9,7.84,7.84,0,0,1,49.53,17.63Zm.1-2.54A5.28,5.28,0,1,0,44.31,9.8,5.31,5.31,0,0,0,49.63,15.09Z"/><path d="M25,2.06c1.09,0,1.95-.05,2.81,0a1.46,1.46,0,0,1,.81.58C29.77,4.11,31,5.58,32.14,7c.19.25.41.48.69.79C34.16,6.18,35.49,4.64,36.7,3a2.09,2.09,0,0,1,2.12-1,17.25,17.25,0,0,0,1.78,0c-.23.34-.37.58-.54.79C38.35,5,36.65,7.07,34.9,9.15a.84.84,0,0,0,0,1.31c1.7,2,3.36,4.11,5,6.17.2.25.38.5.7.93-1.09,0-2,0-2.93,0-.22,0-.46-.31-.64-.52-1.39-1.7-2.78-3.41-4.26-5.25l-1.6,2c-.8,1-1.64,1.92-2.38,3a1.92,1.92,0,0,1-1.95.91c-.54-.06-1.09,0-1.93,0L31.22,9.8Z"/><path d="M18.7,2.09h2.45V17.5H18.7Z"/></g></g></svg>