<?xml version="1.0" encoding="utf-8"?>
<!-- Generator: Adobe Illustrator 23.0.2, SVG Export Plug-In . SVG Version: 6.00 Build 0)  -->
<svg version="1.1" id="Capa_1" xmlns="http://www.w3.org/2000/svg" xmlns:xlink="http://www.w3.org/1999/xlink" x="0px" y="0px"
	 viewBox="0 0 446.8 420.5" style="enable-background:new 0 0 446.8 420.5;" xml:space="preserve">
<style type="text/css">
	.st0{fill:#FFFFFF;stroke:#FFFFFF;stroke-miterlimit:10;}
</style>
<title>Recurso 2</title>
<g>
	<g id="Capa_1-2">
		<path class="st0" d="M444.3,80.3c-2.6-3.6-6.7-5.9-11.1-6.1l-277.3-12C148,61.8,141.3,68,141,75.8c-0.3,7.9,5.8,14.6,13.7,14.9
			l258.4,11.1l-50.8,158.5H136.2L95.4,38c-0.9-4.9-4.3-9-8.9-10.8L19.6,1C12.2-1.8,4,1.8,1,9c-2.9,7.3,0.7,15.7,8,18.6
			c0,0,0,0,0.1,0l59.5,23.4l41.6,226.3c1.3,6.8,7.2,11.7,14.1,11.7h6.9l-15.8,43.8c-1.3,3.7-0.8,7.7,1.5,10.9
			c2.2,3.2,5.9,5.1,9.8,5.1h11c-15.9,17.7-14.4,44.9,3.3,60.7c17.7,15.9,44.9,14.4,60.7-3.3c14.7-16.3,14.7-41.1,0-57.4h93.8
			c-15.9,17.7-14.4,44.9,3.3,60.7c17.7,15.9,44.9,14.4,60.7-3.3c14.7-16.3,14.7-41.1,0-57.4h13.4c6.6,0,11.9-5.3,11.9-11.9
			c0-6.6-5.3-11.9-11.9-11.9c0,0,0,0,0,0H143.7l12.9-35.8h216.2c6.3,0,11.8-4,13.7-10l59.7-186.4C447.5,88.6,446.8,83.9,444.3,80.3z
			 M169.7,396.6c-10.5,0-19.1-8.6-19.1-19.1s8.6-19.1,19.1-19.1c10.5,0,19.1,8.6,19.1,19.1C188.8,388.1,180.2,396.6,169.7,396.6z
			 M327.4,396.6c-10.5,0-19.1-8.6-19.1-19.1s8.6-19.1,19.1-19.1c10.5,0,19.1,8.6,19.1,19.1C346.5,388.1,337.9,396.6,327.4,396.6z"/>
		<path class="st0" d="M295.6,164.4h-24.6v-24.5c-0.2-7.9-6.7-14-14.6-13.8c-7.6,0.2-13.6,6.3-13.8,13.8v24.6h-24.5
			c-7.9,0.2-14,6.7-13.8,14.6c0.2,7.6,6.3,13.6,13.8,13.8h24.6v24.5c-0.2,7.9,6,14.4,13.8,14.6c7.9,0.2,14.4-6,14.6-13.8
			c0-0.3,0-0.5,0-0.8v-24.5h24.5c7.9-0.2,14-6.7,13.8-14.6C309.3,170.7,303.2,164.6,295.6,164.4z"/>
	</g>
</g>
</svg>
