<svg xmlns="http://www.w3.org/2000/svg" viewBox="0 0 99 16.38"><defs><style>.cls-1{fill:red;}.cls-2{fill:#fff;}</style></defs><title>swatch</title><g id="Capa_2" data-name="Capa 2"><g id="Capa_1-2" data-name="Capa 1"><path class="cls-1" d="M99,16H86.45V3.45H99ZM91.2,8.2H87.69v3h3.52v3.51h3.06V11.22h3.49V8.16H94.24V4.67h-3Z"/><path d="M22.61,15.13a4.45,4.45,0,0,1-4.1,1.15,3.84,3.84,0,0,1-3.32-3.88c-.07-3,0-5.9,0-8.84a.79.79,0,0,1,0-.13h2.24v8.36c0,.24,0,.49,0,.73a1.86,1.86,0,0,0,2,1.71,1.84,1.84,0,0,0,2-1.69,7.5,7.5,0,0,0,0-.82V3.43h2.27v8.71a1.9,1.9,0,0,0,1.3,2,2,2,0,0,0,2.72-1.7,5,5,0,0,0,0-.67V3.43H30a2.23,2.23,0,0,1,0,.23c0,2.92,0,5.83,0,8.75a3.85,3.85,0,0,1-2.86,3.76A4.58,4.58,0,0,1,22.61,15.13Z"/><path d="M12,3.41V5.28c0,.34-.27.25-.46.25h-7a6.7,6.7,0,0,0-1.1.06,1.42,1.42,0,0,0,.11,2.81c.22,0,.45,0,.67,0H8.48a6.51,6.51,0,0,1,1.39.16,3.75,3.75,0,0,1-.44,7.33,6.77,6.77,0,0,1-1,.07h-8V13.88l.57,0H8.63a1.61,1.61,0,0,0,1.67-2.09,1.55,1.55,0,0,0-1.62-1.17H4a4,4,0,0,1-2.8-1A3.31,3.31,0,0,1,.17,6,3.49,3.49,0,0,1,3.08,3.47a2.12,2.12,0,0,1,.43-.06Z"/><path d="M41.17,13.79V16a6.4,6.4,0,0,1-8.58-6.28,6.32,6.32,0,0,1,5.25-6.22,3.8,3.8,0,0,1,.58-.06h6.13V16h-2.2V5.62a1.22,1.22,0,0,0-.27-.06c-1.11,0-2.22,0-3.33,0A3.93,3.93,0,0,0,35,8.77a4.36,4.36,0,0,0,2,5A4.57,4.57,0,0,0,40.7,14Z"/><path d="M71.05.28h2.2V4.36a13.74,13.74,0,0,1,2.12-1,5.81,5.81,0,0,1,5.84,1.15A4.7,4.7,0,0,1,82.8,7.9c.09,2.64,0,5.28.06,7.92a.71.71,0,0,1,0,.16h-2.2v-.54c0-2.13,0-4.25,0-6.38a6.48,6.48,0,0,0-.13-1.39,3.29,3.29,0,0,0-4.18-2.42,3.63,3.63,0,0,0-3,3.87c0,2.1,0,4.19,0,6.28V16H71.05Z"/><path d="M66.69,11.91,68.55,13a6.31,6.31,0,0,1-6.77,3.33,6.56,6.56,0,0,1-5.66-6.07,6.58,6.58,0,0,1,4.9-7A6.53,6.53,0,0,1,68.58,6.4L66.67,7.49a4.41,4.41,0,0,0-7.15-.87A4.68,4.68,0,0,0,60,13.24C62.11,15,64.77,14.45,66.69,11.91Z"/><path d="M48.15.28H50.4V3.39h4V5.53h-4v.6c0,2,0,3.93,0,5.89,0,1.36.47,1.84,1.82,1.84h2.2V16l-.31.05H51.9a3.59,3.59,0,0,1-3.75-3.8c0-3.33,0-6.67,0-10Z"/><path d="M81.47,1.4A1.41,1.41,0,0,1,82.89,0a1.44,1.44,0,0,1,1.4,1.39,1.41,1.41,0,1,1-2.82,0Zm2.56,0a1.16,1.16,0,1,0-2.31,0,1.17,1.17,0,0,0,1.13,1.15A1.15,1.15,0,0,0,84,1.43Z"/><path class="cls-2" d="M91.2,8.2V4.67h3V8.16h3.52v3.06H94.27v3.52H91.21V11.23H87.69v-3Z"/><path class="cls-2" d="M84,1.43a1.15,1.15,0,0,1-1.18,1.14,1.17,1.17,0,0,1-1.13-1.15,1.16,1.16,0,1,1,2.31,0Zm-1.45-.05.78.79.1-.1-.31-.52.14,0c.07-.25.26-.57.17-.71-.28-.43-.74-.18-1.17-.21a6.91,6.91,0,0,0,.06,1.46h.17Z"/><path d="M82.58,1.38l-.06.73h-.17A6.91,6.91,0,0,1,82.29.66c.43,0,.89-.22,1.17.21.09.14-.1.46-.17.71l-.14,0,.31.52-.1.1Zm0,0,.63-.3a1.64,1.64,0,0,0-.38-.18C82.62.82,82.47.91,82.63,1.35Z"/><path class="cls-2" d="M82.63,1.35c-.16-.44,0-.53.25-.48a1.64,1.64,0,0,1,.38.18Z"/></g></g></svg>