<svg xmlns="http://www.w3.org/2000/svg" viewBox="0 0 64.05 64.05"><defs><style>.cls-1{fill:#4c4c4c;}.cls-2{fill:#fff;}</style></defs><title>Recurso 7</title><g id="Capa_2" data-name="Capa 2"><g id="index"><circle class="cls-1" cx="32.03" cy="32.03" r="32.03"/><path class="cls-2" d="M48.38,18.26H15.67a4.31,4.31,0,0,0-4.3,4.3V41.49a4.31,4.31,0,0,0,4.3,4.31H48.38a4.31,4.31,0,0,0,4.3-4.31V22.56A4.31,4.31,0,0,0,48.38,18.26ZM51,41.49a2.59,2.59,0,0,1-2.58,2.59H15.67a2.59,2.59,0,0,1-2.58-2.59V22.56A2.59,2.59,0,0,1,15.67,20H48.38A2.59,2.59,0,0,1,51,22.56V41.49Z"/><path class="cls-2" d="M51.82,23.42H12.23a.87.87,0,0,0-.86.86v5.16a.87.87,0,0,0,.86.87H51.82a.86.86,0,0,0,.86-.87V24.28A.86.86,0,0,0,51.82,23.42ZM51,28.58H13.09V25.14H51v3.44Z"/><path class="cls-2" d="M27.72,35.47H17.39a.86.86,0,0,0,0,1.72H27.72a.86.86,0,0,0,0-1.72Z"/><path class="cls-2" d="M27.72,38.91H17.39a.86.86,0,1,0,0,1.72H27.72a.86.86,0,1,0,0-1.72Z"/><path class="cls-2" d="M44.94,33.75H43.22a2.59,2.59,0,0,0-2.59,2.58v1.72a2.59,2.59,0,0,0,2.59,2.58h1.72a2.59,2.59,0,0,0,2.58-2.58V36.33A2.59,2.59,0,0,0,44.94,33.75Zm.86,4.3a.86.86,0,0,1-.86.86H43.22a.86.86,0,0,1-.87-.86V36.33a.86.86,0,0,1,.87-.86h1.72a.86.86,0,0,1,.86.86Z"/></g></g></svg>