<svg xmlns="http://www.w3.org/2000/svg" viewBox="0 0 78.62 55.11"><defs><style>.cls-1{fill:#d41f37;}.cls-2{fill:#1a1e4c;}.cls-3{fill:#fff;}</style></defs><title>tomy</title><g id="Capa_2" data-name="Capa 2"><g id="Capa_1-2" data-name="Capa 1"><path class="cls-1" d="M0,41.37a.82.82,0,0,1,.38,0H38.8c.17,0,.38.07.5-.06s0-.31,0-.48V14.19c0-.45,0-.41-.4-.41H.4c-.13,0-.26.05-.38,0a.34.34,0,0,1,.28-.13h78a.31.31,0,0,1,.27.13c0,.13,0,.25,0,.38V41.06c0,.1,0,.2,0,.31a.36.36,0,0,1-.28.12H.3A.33.33,0,0,1,0,41.37Z"/><path class="cls-2" d="M0,41.37H78.61c0,.09,0,.19,0,.28V54.77c0,.39,0,.34-.35.34H.35c-.38,0-.35,0-.35-.35V41.68A.66.66,0,0,1,0,41.37Z"/><path class="cls-2" d="M78.6,13.74H0a1,1,0,0,1,0-.29V.34C0,0,0,0,.33,0h78c.36,0,.33,0,.33.34V13.45A2.83,2.83,0,0,1,78.6,13.74Z"/><path class="cls-3" d="M53.2,45.41a.87.87,0,0,1-.35-.16,5.74,5.74,0,0,0-2.13-.73,3,3,0,0,0-3,1.21,3.81,3.81,0,0,0-.8,2.19,4.19,4.19,0,0,0,.52,2.43A3.23,3.23,0,0,0,50.68,52a5.59,5.59,0,0,0,1.21-.28c.24-.08.26-.1.26-.35,0-.5,0-1,0-1.51,0-.22,0-.23-.24-.23H50.79c-.24,0-.25,0-.25-.25V48.5c0-.19,0-.2.19-.2h2.45c.17,0,.19,0,.19.22v3.72a.3.3,0,0,1-.17.32,6.1,6.1,0,0,1-3.91.64,4.2,4.2,0,0,1-3-2.33,5.88,5.88,0,0,1,.4-5.83,4.31,4.31,0,0,1,4.5-1.78,6.94,6.94,0,0,1,1.88.68c.08,0,.15.09.15.19Z"/><path class="cls-3" d="M5.12,48.24V43.5c0-.16,0-.2.21-.2h.83c.12,0,.18.05.18.17a1.77,1.77,0,0,1,0,.23v3.7c0,.12.05.19.18.19H10.7c.35,0,.35,0,.35-.34,0-1.17,0-2.33,0-3.49a2.26,2.26,0,0,1,0-.26c0-.17,0-.2.2-.2h.84c.11,0,.18.05.18.17a1.08,1.08,0,0,0,0,.18v9.21c0,.29,0,.29-.29.29h-.73c-.17,0-.2,0-.2-.19s0-.37,0-.55V49.06c0-.13-.06-.2-.19-.2H6.51c-.11,0-.15.06-.16.16a.56.56,0,0,0,0,.13v3.78c0,.2,0,.22-.23.22H5.34c-.2,0-.21,0-.22-.2s0-.42,0-.63V48.24Z"/><path class="cls-3" d="M70.53,48.46l.38.41a6,6,0,0,1,.86,1.24c.52,1,1,1.94,1.63,2.87a.16.16,0,0,1,0,.12c0,.06-.09,0-.13,0a8.68,8.68,0,0,0-1,0,.38.38,0,0,1-.4-.26l-.47-.9c-.35-.63-.68-1.27-1.08-1.87a5.24,5.24,0,0,0-.53-.71,1.52,1.52,0,0,0-1.29-.56c-.26,0-.3.06-.31.33a1.93,1.93,0,0,0,0,.24c0,1.14,0,2.29,0,3.43,0,.28,0,.28-.27.28h-.71c-.23,0-.24,0-.24-.23V43.71c0-.41,0-.41.41-.41.57,0,1.13,0,1.7,0a3.57,3.57,0,0,1,.92.12,2.39,2.39,0,0,1,1.75,1.76,3.31,3.31,0,0,1,0,1.82,2.3,2.3,0,0,1-1,1.35l-.16.09S70.54,48.45,70.53,48.46Z"/><path class="cls-3" d="M58,48.23V43.52c0-.19,0-.21.22-.22h4.34c.2,0,.23,0,.23.23s0,.53,0,.8,0,.26-.27.26H59.41c-.2,0-.22,0-.22.23s0,.4,0,.6c0,.61,0,1.23,0,1.84,0,.28,0,.29.29.29h3a.12.12,0,0,1,.14.14c0,.32,0,.64,0,1a.14.14,0,0,1-.16.16H59.39c-.17,0-.19,0-.2.2a.57.57,0,0,0,0,.13c0,.8,0,1.61,0,2.42,0,.3,0,.31.3.31h3.15c.2,0,.22,0,.23.23V53c0,.17,0,.2-.2.21H58.16c-.17,0-.19,0-.2-.2V48.23Z"/><path class="cls-3" d="M31.91,48.24V43.69c0-.39,0-.39.39-.39h3.93c.13,0,.2.05.2.19,0,.3,0,.6,0,.91a.17.17,0,0,1-.19.19h-3c-.08,0-.13,0-.13.13s0,.12,0,.18c0,.69,0,1.37,0,2.06,0,.34,0,.34.35.34h2.78a.13.13,0,0,1,.15.15c0,.33,0,.65,0,1a.12.12,0,0,1-.12.14H33.35c-.18,0-.2,0-.21.21a1.48,1.48,0,0,0,0,.21c0,1.25,0,2.5,0,3.75v.18c0,.21,0,.23-.25.23h-.73c-.22,0-.25,0-.25-.25V48.24Z"/><path class="cls-3" d="M23.44,48.21V47.14c0-1.15,0-2.3,0-3.45,0-.39,0-.39.39-.39h.6c.21,0,.23,0,.23.24a1.47,1.47,0,0,1,0,.21v7.78c0,.35,0,.35.34.35H28.3c.11,0,.16.06.16.17,0,.32,0,.64,0,1a.14.14,0,0,1-.14.15H23.68c-.22,0-.25,0-.25-.23s0-.68,0-1V48.21Z"/><path class="cls-3" d="M17.26,48.22V43.59c0-.28,0-.29.3-.29h.68c.2,0,.23,0,.24.24a1.08,1.08,0,0,1,0,.18v9c0,.41,0,.41-.42.4h-.59c-.17,0-.2,0-.21-.2s0-.55,0-.83v-3.9Z"/><path class="cls-3" d="M40.64,48.24V43.51c0-.19,0-.21.22-.21h.78c.18,0,.21,0,.22.21v9.36c0,.27,0,.28-.28.28h-.65c-.29,0-.29,0-.29-.28V48.24Z"/><path class="cls-3" d="M41.69,4.07a1.14,1.14,0,0,0-.28.33c-.83,1.11-1.65,2.23-2.47,3.35-.26.36-.34.35-.61,0-.84-1.13-1.68-2.27-2.51-3.41a1.07,1.07,0,0,0-.2-.23.45.45,0,0,0,0,.3v7.15c0,.52,0,.47-.46.46h-.68c-.2,0-.24,0-.24-.25s0-.36,0-.54V1.94a.16.16,0,0,1,.19-.18h.94a.34.34,0,0,1,.3.17l.73,1,2.1,2.81a.57.57,0,0,0,.18.2A2.79,2.79,0,0,0,39,5.49c.86-1.14,1.72-2.28,2.57-3.43a.61.61,0,0,1,.61-.3c.23,0,.47,0,.7,0s.2,0,.21.19a1.09,1.09,0,0,1,0,.18v9.63c0,.22,0,.26-.26.26h-.89c-.2,0-.24,0-.24-.24s0-.23,0-.34V4.07Z"/><path class="cls-3" d="M58.24,4.1c-.12,0-.15.13-.2.19L55.52,7.71c-.3.41-.36.4-.67,0L52.36,4.32a.64.64,0,0,0-.19-.22.67.67,0,0,0,0,.31v7.31c0,.28,0,.3-.3.3H51c-.26,0-.28,0-.28-.29s0-.45,0-.67V3c0-.31,0-.62,0-.93s0-.3.3-.3.47,0,.7,0a.5.5,0,0,1,.48.23l2.16,2.9.62.83c.17.23.19.23.36,0L58,2.25l.23-.31a.37.37,0,0,1,.36-.18c.28,0,.57,0,.86,0s.19,0,.2.2v9.67c0,.39,0,.39-.39.38H58.5c-.23,0-.25,0-.26-.25V9.66c0-1.81,0-3.61,0-5.41C58.25,4.2,58.24,4.16,58.24,4.1Z"/><path class="cls-3" d="M22.73,12.14A4.86,4.86,0,0,1,18,9a5.56,5.56,0,0,1,.07-4.47,4.7,4.7,0,0,1,3.46-2.81,5.12,5.12,0,0,1,4.55,1.11,4.79,4.79,0,0,1,1.53,2.6,5.47,5.47,0,0,1-.91,4.76,4.71,4.71,0,0,1-3.09,1.85A4.77,4.77,0,0,1,22.73,12.14Z"/><path class="cls-3" d="M9.35,7.57v4.19c0,.23,0,.26-.26.26H8.24C8,12,8,12,8,11.77V4.57c0-.4,0-.8,0-1.2s0-.29-.28-.29H5c-.28,0-.29,0-.29-.3s0-.55,0-.83,0-.19.19-.2a1.08,1.08,0,0,1,.18,0h7.19c.43,0,.37,0,.37.37v.7c0,.25,0,.27-.26.27H9.66c-.3,0-.32,0-.32.33V7.57Z"/><path class="cls-3" d="M69.71,5.28,71,3.45l1.11-1.51a.32.32,0,0,1,.29-.19h1.35l.08,0a.55.55,0,0,1-.13.25c-1,1.41-2,2.82-3.08,4.22a1.12,1.12,0,0,0-.24.74c0,1.53,0,3.06,0,4.58v.21c0,.21,0,.24-.25.24h-.84c-.28,0-.3,0-.3-.29,0-.48,0-1,0-1.43C69,9.16,69,8,69,6.89a.91.91,0,0,0-.18-.55L65.74,2.07a.87.87,0,0,1-.16-.26c0-.07.1-.05.15-.05.4,0,.8,0,1.2,0a.44.44,0,0,1,.39.21l2.11,2.93Z"/><path class="cls-2" d="M68.21,46v-1.3c0-.21,0-.21.22-.21a5.47,5.47,0,0,1,1,0,1.28,1.28,0,0,1,1.2,1.4,1.94,1.94,0,0,1-.05.54,1.28,1.28,0,0,1-1.14,1.05,5.4,5.4,0,0,1-1,0c-.22,0-.24,0-.24-.23s0-.45,0-.68Z"/><path class="cls-2" d="M26.4,6.87a3.92,3.92,0,0,1-.75,2.44,3.5,3.5,0,0,1-3.35,1.44,3.39,3.39,0,0,1-3-2.34A4.07,4.07,0,0,1,20,4.25,3.48,3.48,0,0,1,23,3a3.67,3.67,0,0,1,3.34,3.46C26.39,6.59,26.39,6.73,26.4,6.87Z"/></g></g></svg>