<svg id="Capa_1" data-name="Capa 1" xmlns="http://www.w3.org/2000/svg" viewBox="0 0 600 258.72"><defs><style>.cls-1,.cls-5{fill:none;}.cls-1{stroke:#000;stroke-width:6.48px;}.cls-1,.cls-2,.cls-3,.cls-5{stroke-miterlimit:10;}.cls-2,.cls-3,.cls-5{stroke:#f93;stroke-linecap:round;}.cls-2,.cls-3{stroke-width:21.6px;}.cls-3{fill:#b71a5d;}.cls-4{fill:#fff;}.cls-5{stroke-width:10.8px;}.cls-6{font-size:90.65px;fill:#f93;font-family:Molot;}.cls-7{font-size:34.86px;font-family:Khand-Medium, Khand;font-weight:500;letter-spacing:0.4em;}</style></defs><title>tranferencia</title><path d="M381.13,130.76h-20.4V92.11a5.4,5.4,0,0,0-10.8,0v44.05a5.4,5.4,0,0,0,5.4,5.4h25.8a5.4,5.4,0,0,0,0-10.8Z"/><path d="M583.47,125.36h-144c-.29-2.24-.65-4.46-1.11-6.65H548.52a10.8,10.8,0,1,0,0-21.6H449.14c-15.61-37.3-52.78-62.6-93.81-62.6a101.66,101.66,0,1,0,93.8,140.7h99.39a10.8,10.8,0,1,0,0-21.6H438.31c.46-2.18.82-4.41,1.11-6.65H583.47a10.8,10.8,0,0,0,0-21.6ZM418.52,136c0,.06,0,.11,0,.17s0,.11,0,.17a63.2,63.2,0,1,1,0-.34Zm23.55,39.22A95.15,95.15,0,1,1,355.33,41c37.49,0,71.53,22.57,86.73,56.12h-11.5a84.8,84.8,0,1,0,0,78.1Z"/><path class="cls-1" d="M449.58,107.74a98.41,98.41,0,1,0,.2,56.18"/><line class="cls-2" x1="425.47" y1="107.91" x2="548.52" y2="107.91"/><line class="cls-2" x1="425.47" y1="164.41" x2="548.52" y2="164.41"/><line class="cls-3" x1="429.3" y1="136.16" x2="583.47" y2="136.16"/><circle class="cls-4" cx="355.33" cy="136.16" r="74"/><path d="M355.33,73a63.2,63.2,0,1,1-63.2,63.2A63.2,63.2,0,0,1,355.33,73m0-21.6a84.8,84.8,0,1,0,84.8,84.8,84.89,84.89,0,0,0-84.8-84.8Z"/><line class="cls-5" x1="355.33" y1="136.16" x2="381.13" y2="136.16"/><line class="cls-5" x1="355.33" y1="136.16" x2="355.33" y2="92.11"/><text class="cls-6" transform="translate(7.32 96.18)">MI <tspan x="0" y="78.79">RELOJ</tspan></text><text class="cls-7" transform="translate(39.08 212.23)">TIENDA</text></svg>