<svg xmlns="http://www.w3.org/2000/svg" viewBox="0 0 64.05 64.05"><defs><style>.cls-1{fill:#4c4c4c;}.cls-2{fill:#fff;}</style></defs><title>Recurso 5</title><g id="Capa_2" data-name="Capa 2"><g id="index"><circle class="cls-1" cx="32.03" cy="32.03" r="32.03"/><g id="_06-Coin" data-name=" 06-Coin"><g id="filled"><path class="cls-2" d="M52.64,23.36l-5.31-5.31a1,1,0,0,0-1.41,0,1,1,0,0,0-.29.7v1.66h-2V14.77A3.65,3.65,0,0,0,40,11.12H24.06a3.66,3.66,0,0,0-3.65,3.65V36.34h-2V34.68a1,1,0,0,0-1.7-.7l-5.31,5.31a1,1,0,0,0,0,1.4L16.72,46a1,1,0,0,0,1.7-.7V43.64h2v5.64a3.65,3.65,0,0,0,3.65,3.65H40a3.64,3.64,0,0,0,3.65-3.65V27.71h2v1.66a1,1,0,0,0,1.7.71l5.31-5.31A1,1,0,0,0,52.64,23.36ZM24.06,13.11H40a1.66,1.66,0,0,1,1.66,1.66v1.66H22.4V14.77A1.67,1.67,0,0,1,24.06,13.11ZM40,50.94H24.06a1.66,1.66,0,0,1-1.66-1.66V47.62H41.65v1.66A1.66,1.66,0,0,1,40,50.94Zm7.63-24v-.25a1,1,0,0,0-1-1h-8a1,1,0,0,0,0,2h3V45.63H22.4v-2h3a1,1,0,1,0,0-2h-8a1,1,0,0,0-1,1v.25L13.52,40l2.91-2.91v.26a1,1,0,0,0,1,1h8a1,1,0,1,0,0-2h-3V18.42H41.65v2h-3a1,1,0,0,0,0,2h8a1,1,0,0,0,1-1v-.25l2.91,2.9Z"/><path class="cls-2" d="M30.7,27.71H34a1,1,0,0,1,1,1,1,1,0,0,0,2,0,3,3,0,0,0-3-3H33V24.06a1,1,0,0,0-2,0v1.66H30.7a3.65,3.65,0,1,0,0,7.3h2.65a1.66,1.66,0,0,1,0,3.32H30a1,1,0,0,1-1-1,1,1,0,0,0-2,0,3,3,0,0,0,3,3h1V40a1,1,0,1,0,2,0V38.33h.33a3.65,3.65,0,0,0,0-7.3H30.7a1.66,1.66,0,0,1,0-3.32Z"/></g></g></g></g></svg>